<svg width="47" height="47" viewBox="0 0 47 47" fill="none" xmlns="http://www.w3.org/2000/svg">
<circle cx="23.5" cy="23.5" r="23.5" fill="url(#paint0_linear_2505_1062)"/>
<path d="M17.739 8C14.7856 8 13.0019 11.7424 14.599 14.5881L19.6005 23.5L14.599 32.4119C13.0019 35.2576 14.7856 39 17.739 39H29.261C32.2144 39 33.9981 35.2576 32.401 32.4119L27.3995 23.5L32.401 14.5881C33.9981 11.7424 32.2144 8 29.261 8H17.739Z" fill="url(#paint1_linear_2505_1062)"/>
<path d="M23.5001 18.4583C23.5001 21.7496 23.6915 23.5 26.9834 23.5C23.6915 23.5 23.5001 24.6906 23.5001 28.5416C23.5001 24.6408 23.1517 23.5 20.0167 23.5C23.1517 23.5 23.5001 21.6998 23.5001 18.4583Z" fill="black"/>
<defs>
<linearGradient id="paint0_linear_2505_1062" x1="39" y1="5.5" x2="8.5" y2="43.5" gradientUnits="userSpaceOnUse">
<stop stop-color="#563EF2"/>
<stop offset="1" stop-color="#020106"/>
</linearGradient>
<linearGradient id="paint1_linear_2505_1062" x1="23.5" y1="8" x2="23.5" y2="39" gradientUnits="userSpaceOnUse">
<stop stop-color="white"/>
<stop offset="1" stop-color="#BED8FF"/>
</linearGradient>
</defs>
</svg>
